<svg width="98" height="64" viewBox="0 0 98 64" fill="none" xmlns="http://www.w3.org/2000/svg">
<g clip-path="url(#clip0_52_1681)">
<path d="M43.2587 18.5273H11.7588C8.77619 18.5309 5.91679 19.7173 3.80778 21.8263C1.69877 23.9353 0.512362 26.7947 0.508789 29.7773L0.508789 43.2773C0.512362 46.2598 1.69877 49.1192 3.80778 51.2282C5.91679 53.3372 8.77619 54.5237 11.7588 54.5272H43.2587C46.2413 54.5237 49.1007 53.3372 51.2097 51.2282C53.3188 49.1192 54.5052 46.2598 54.5087 43.2773V29.7773C54.5052 26.7947 53.3188 23.9353 51.2097 21.8263C49.1007 19.7173 46.2413 18.5309 43.2587 18.5273ZM9.50878 47.7772C9.06377 47.7772 8.62876 47.6453 8.25875 47.3981C7.88874 47.1508 7.60035 46.7994 7.43005 46.3883C7.25976 45.9772 7.2152 45.5248 7.30201 45.0883C7.38883 44.6518 7.60312 44.2509 7.91779 43.9363C8.23246 43.6216 8.63337 43.4073 9.06983 43.3205C9.50628 43.2337 9.95868 43.2782 10.3698 43.4485C10.7809 43.6188 11.1324 43.9072 11.3796 44.2772C11.6268 44.6472 11.7588 45.0822 11.7588 45.5273C11.7588 46.124 11.5217 46.6963 11.0998 47.1182C10.6778 47.5402 10.1055 47.7772 9.50878 47.7772ZM9.50878 29.7773C9.06377 29.7773 8.62876 29.6453 8.25875 29.3981C7.88874 29.1509 7.60035 28.7995 7.43005 28.3883C7.25976 27.9772 7.2152 27.5248 7.30201 27.0884C7.38883 26.6519 7.60312 26.251 7.91779 25.9363C8.23246 25.6217 8.63337 25.4074 9.06983 25.3206C9.50628 25.2337 9.95868 25.2783 10.3698 25.4486C10.7809 25.6189 11.1324 25.9073 11.3796 26.2773C11.6268 26.6473 11.7588 27.0823 11.7588 27.5273C11.7588 28.124 11.5217 28.6963 11.0998 29.1183C10.6778 29.5403 10.1055 29.7773 9.50878 29.7773ZM27.5088 45.5273C25.7287 45.5273 23.9887 44.9994 22.5086 44.0105C21.0286 43.0216 19.875 41.616 19.1939 39.9714C18.5127 38.3269 18.3344 36.5173 18.6817 34.7715C19.029 33.0257 19.8861 31.422 21.1448 30.1633C22.4035 28.9047 24.0071 28.0475 25.7529 27.7002C27.4988 27.353 29.3084 27.5312 30.9529 28.2124C32.5974 28.8936 34.003 30.0471 34.992 31.5272C35.9809 33.0072 36.5088 34.7473 36.5088 36.5273C36.5088 38.9142 35.5605 41.2034 33.8727 42.8912C32.1849 44.579 29.8957 45.5273 27.5088 45.5273ZM45.5087 47.7772C45.0637 47.7772 44.6287 47.6453 44.2587 47.3981C43.8887 47.1508 43.6003 46.7994 43.43 46.3883C43.2597 45.9772 43.2152 45.5248 43.302 45.0883C43.3888 44.6518 43.6031 44.2509 43.9178 43.9363C44.2324 43.6216 44.6333 43.4073 45.0698 43.3205C45.5062 43.2337 45.9586 43.2782 46.3698 43.4485C46.7809 43.6188 47.1323 43.9072 47.3795 44.2772C47.6268 44.6472 47.7587 45.0822 47.7587 45.5273C47.7587 46.124 47.5217 46.6963 47.0997 47.1182C46.6778 47.5402 46.1055 47.7772 45.5087 47.7772ZM45.5087 29.7773C45.0637 29.7773 44.6287 29.6453 44.2587 29.3981C43.8887 29.1509 43.6003 28.7995 43.43 28.3883C43.2597 27.9772 43.2152 27.5248 43.302 27.0884C43.3888 26.6519 43.6031 26.251 43.9178 25.9363C44.2324 25.6217 44.6333 25.4074 45.0698 25.3206C45.5062 25.2337 45.9586 25.2783 46.3698 25.4486C46.7809 25.6189 47.1323 25.9073 47.3795 26.2773C47.6268 26.6473 47.7587 27.0823 47.7587 27.5273C47.7587 28.124 47.5217 28.6963 47.0997 29.1183C46.6778 29.5403 46.1055 29.7773 45.5087 29.7773ZM32.0088 36.5273C32.0088 37.4173 31.7448 38.2873 31.2504 39.0273C30.7559 39.7674 30.0531 40.3441 29.2308 40.6847C28.4086 41.0253 27.5038 41.1144 26.6309 40.9408C25.7579 40.7672 24.9561 40.3386 24.3268 39.7093C23.6974 39.0799 23.2689 38.2781 23.0952 37.4052C22.9216 36.5323 23.0107 35.6275 23.3513 34.8052C23.6919 33.983 24.2687 33.2801 25.0087 32.7857C25.7487 32.2912 26.6187 32.0273 27.5088 32.0273C28.7022 32.0273 29.8468 32.5014 30.6907 33.3453C31.5346 34.1892 32.0088 35.3338 32.0088 36.5273Z" fill="#E5067E"/>
</g>
<g clip-path="url(#clip1_52_1681)">
<path d="M86.0087 19.4803V16.2763C86.0087 7.57788 78.9573 0.526367 70.2588 0.526367C61.5603 0.526367 54.5088 7.57788 54.5088 16.2763V19.4803C50.4139 21.2675 47.7648 25.3084 47.7589 29.7762V43.2762C47.7662 49.4863 52.7987 54.5188 59.0088 54.5262H81.5087C87.7188 54.5188 92.7512 49.4863 92.7587 43.2762V29.7762C92.7529 25.3084 90.1037 21.2675 86.0087 19.4803ZM72.5088 38.7763C72.5088 40.0189 71.5014 41.0262 70.2588 41.0262C69.0162 41.0262 68.0088 40.0189 68.0088 38.7763V34.2763C68.0088 33.0336 69.0162 32.0263 70.2588 32.0263C71.5014 32.0263 72.5088 33.0336 72.5088 34.2763V38.7763ZM81.5088 18.5263H59.0088V16.2764C59.0088 10.0632 64.0455 5.02639 70.2588 5.02639C76.4721 5.02639 81.5088 10.0631 81.5088 16.2764V18.5263Z" fill="#E5067E"/>
</g>
<defs>
<clipPath id="clip0_52_1681">
<rect width="53.9999" height="53.9998" fill="white" transform="translate(0.508789 9.52661)"/>
</clipPath>
<clipPath id="clip1_52_1681">
<rect width="53.9999" height="53.9998" fill="white" transform="translate(43.2588 0.526367)"/>
</clipPath>
</defs>
</svg>
