<svg width="88" height="58" viewBox="0 0 88 58" fill="none" xmlns="http://www.w3.org/2000/svg">
<g clip-path="url(#clip0_48_1652)">
<path d="M38.7755 16.3271H10.2041C7.49879 16.3304 4.90522 17.4065 2.99229 19.3194C1.07935 21.2324 0.00324053 23.8259 0 26.5312L0 38.7761C0.00324053 41.4814 1.07935 44.075 2.99229 45.9879C4.90522 47.9009 7.49879 48.977 10.2041 48.9802H38.7755C41.4808 48.977 44.0744 47.9009 45.9873 45.9879C47.9002 44.075 48.9764 41.4814 48.9796 38.7761V26.5312C48.9764 23.8259 47.9002 21.2324 45.9873 19.3194C44.0744 17.4065 41.4808 16.3304 38.7755 16.3271ZM8.16327 42.8578C7.75963 42.8578 7.36506 42.7381 7.02945 42.5138C6.69384 42.2896 6.43226 41.9708 6.2778 41.5979C6.12333 41.225 6.08292 40.8147 6.16166 40.4188C6.24041 40.0229 6.43478 39.6593 6.72019 39.3739C7.0056 39.0885 7.36924 38.8941 7.76512 38.8153C8.161 38.7366 8.57134 38.777 8.94425 38.9315C9.31716 39.0859 9.63589 39.3475 9.86014 39.6831C10.0844 40.0187 10.2041 40.4133 10.2041 40.8169C10.2041 41.3582 9.98907 41.8773 9.60634 42.26C9.22361 42.6427 8.70452 42.8578 8.16327 42.8578ZM8.16327 26.5312C7.75963 26.5312 7.36506 26.4115 7.02945 26.1873C6.69384 25.963 6.43226 25.6443 6.2778 25.2714C6.12333 24.8985 6.08292 24.4881 6.16166 24.0923C6.24041 23.6964 6.43478 23.3328 6.72019 23.0473C7.0056 22.7619 7.36924 22.5676 7.76512 22.4888C8.161 22.4101 8.57134 22.4505 8.94425 22.6049C9.31716 22.7594 9.63589 23.021 9.86014 23.3566C10.0844 23.6922 10.2041 24.0868 10.2041 24.4904C10.2041 25.0317 9.98907 25.5508 9.60634 25.9335C9.22361 26.3162 8.70452 26.5312 8.16327 26.5312ZM24.4898 40.8169C22.8753 40.8169 21.297 40.3382 19.9545 39.4412C18.6121 38.5442 17.5658 37.2693 16.9479 35.7776C16.3301 34.286 16.1684 32.6446 16.4834 31.0611C16.7984 29.4776 17.5758 28.023 18.7175 26.8814C19.8591 25.7397 21.3137 24.9622 22.8972 24.6473C24.4807 24.3323 26.1221 24.4939 27.6137 25.1118C29.1054 25.7297 30.3803 26.776 31.2773 28.1184C32.1743 29.4609 32.6531 31.0391 32.6531 32.6537C32.6531 34.8187 31.793 36.8951 30.2621 38.426C28.7312 39.9569 26.6548 40.8169 24.4898 40.8169ZM40.8163 42.8578C40.4127 42.8578 40.0181 42.7381 39.6825 42.5138C39.3469 42.2896 39.0853 41.9708 38.9309 41.5979C38.7764 41.225 38.736 40.8147 38.8147 40.4188C38.8935 40.0229 39.0878 39.6593 39.3733 39.3739C39.6587 39.0885 40.0223 38.8941 40.4182 38.8153C40.8141 38.7366 41.2244 38.777 41.5973 38.9315C41.9702 39.0859 42.289 39.3475 42.5132 39.6831C42.7375 40.0187 42.8571 40.4133 42.8571 40.8169C42.8571 41.3582 42.6421 41.8773 42.2594 42.26C41.8767 42.6427 41.3576 42.8578 40.8163 42.8578ZM40.8163 26.5312C40.4127 26.5312 40.0181 26.4115 39.6825 26.1873C39.3469 25.963 39.0853 25.6443 38.9309 25.2714C38.7764 24.8985 38.736 24.4881 38.8147 24.0923C38.8935 23.6964 39.0878 23.3328 39.3733 23.0473C39.6587 22.7619 40.0223 22.5676 40.4182 22.4888C40.8141 22.4101 41.2244 22.4505 41.5973 22.6049C41.9702 22.7594 42.289 23.021 42.5132 23.3566C42.7375 23.6922 42.8571 24.0868 42.8571 24.4904C42.8571 25.0317 42.6421 25.5508 42.2594 25.9335C41.8767 26.3162 41.3576 26.5312 40.8163 26.5312ZM28.5714 32.6537C28.5714 33.4609 28.332 34.2501 27.8836 34.9213C27.4351 35.5925 26.7976 36.1157 26.0518 36.4246C25.306 36.7335 24.4853 36.8144 23.6935 36.6569C22.9018 36.4994 22.1745 36.1107 21.6036 35.5398C21.0328 34.969 20.6441 34.2417 20.4866 33.45C20.3291 32.6582 20.4099 31.8375 20.7189 31.0917C21.0278 30.3459 21.5509 29.7084 22.2222 29.2599C22.8934 28.8114 23.6825 28.572 24.4898 28.572C25.5723 28.572 26.6105 29.0021 27.3759 29.7675C28.1414 30.533 28.5714 31.5712 28.5714 32.6537Z" fill="white"/>
</g>
<g clip-path="url(#clip1_48_1652)">
<path d="M77.5511 17.1918V14.2857C77.5511 6.39595 71.1552 0 63.2654 0C55.3755 0 48.9797 6.39595 48.9797 14.2857V17.1918C45.2655 18.8129 42.8626 22.4781 42.8572 26.5306V38.7755C42.8639 44.4082 47.4285 48.9729 53.0613 48.9796H73.4694C79.1021 48.9729 83.6667 44.4082 83.6735 38.7755V26.5306C83.6682 22.4781 81.2653 18.8129 77.5511 17.1918ZM65.3062 34.6939C65.3062 35.821 64.3925 36.7347 63.2654 36.7347C62.1383 36.7347 61.2246 35.821 61.2246 34.6939V30.6122C61.2246 29.4851 62.1383 28.5715 63.2654 28.5715C64.3925 28.5715 65.3062 29.4851 65.3062 30.6122V34.6939ZM73.4695 16.3266H53.0613V14.2858C53.0613 8.65026 57.6298 4.08167 63.2654 4.08167C68.901 4.08167 73.4695 8.65016 73.4695 14.2858V16.3266Z" fill="white"/>
</g>
<defs>
<clipPath id="clip0_48_1652">
<rect width="48.9796" height="48.9796" fill="white" transform="translate(0 8.16327)"/>
</clipPath>
<clipPath id="clip1_48_1652">
<rect width="48.9796" height="48.9796" fill="white" transform="translate(38.7756)"/>
</clipPath>
</defs>
</svg>
