<svg width="49" height="49" viewBox="0 0 49 49" fill="none" xmlns="http://www.w3.org/2000/svg">
<g clip-path="url(#clip0_48_1632)">
<path d="M19.3958 49H3.06248C2.25026 49 1.4713 48.6773 0.89697 48.103C0.32264 47.5287 -1.52588e-05 46.7497 -1.52588e-05 45.9375C-1.52588e-05 45.1253 0.32264 44.3463 0.89697 43.772C1.4713 43.1977 2.25026 42.875 3.06248 42.875H19.3958C20.208 42.875 20.987 43.1977 21.5613 43.772C22.1357 44.3463 22.4583 45.1253 22.4583 45.9375C22.4583 46.7497 22.1357 47.5287 21.5613 48.103C20.987 48.6773 20.208 49 19.3958 49Z" fill="white"/>
<path d="M15.3125 38.7904H3.06248C2.25026 38.7904 1.4713 38.4677 0.89697 37.8934C0.32264 37.3191 -1.52588e-05 36.5401 -1.52588e-05 35.7279C-1.52588e-05 34.9157 0.32264 34.1367 0.89697 33.5624C1.4713 32.9881 2.25026 32.6654 3.06248 32.6654H15.3125C16.1247 32.6654 16.9037 32.9881 17.478 33.5624C18.0523 34.1367 18.375 34.9157 18.375 35.7279C18.375 36.5401 18.0523 37.3191 17.478 37.8934C16.9037 38.4677 16.1247 38.7904 15.3125 38.7904Z" fill="white"/>
<path d="M11.2292 28.5846H3.06249C2.25026 28.5846 1.4713 28.2619 0.896972 27.6876C0.322642 27.1133 -1.33514e-05 26.3343 -1.33514e-05 25.5221C-1.33514e-05 24.7099 0.322642 23.9309 0.896972 23.3566C1.4713 22.7822 2.25026 22.4596 3.06249 22.4596H11.2292C12.0414 22.4596 12.8203 22.7822 13.3947 23.3566C13.969 23.9309 14.2917 24.7099 14.2917 25.5221C14.2917 26.3343 13.969 27.1133 13.3947 27.6876C12.8203 28.2619 12.0414 28.5846 11.2292 28.5846Z" fill="white"/>
<path d="M29.6039 48.4308C28.8542 48.4316 28.1302 48.1573 27.5692 47.6599C27.0082 47.1626 26.6491 46.4767 26.56 45.7322C26.4709 44.9878 26.658 44.2366 27.0858 43.6208C27.5136 43.0051 28.1524 42.5678 28.8812 42.3916C31.9012 41.6512 34.6846 40.1584 36.972 38.0522C39.2595 35.9461 40.9766 33.2951 41.9633 30.3464C42.9499 27.3977 43.1741 24.2471 42.6148 21.1884C42.0556 18.1297 40.7311 15.2624 38.7648 12.8536C36.7986 10.4448 34.2546 8.57291 31.3698 7.41244C28.4851 6.25196 25.3535 5.84064 22.2669 6.2168C19.1804 6.59296 16.2392 7.74436 13.7176 9.56371C11.196 11.3831 9.17604 13.8111 7.84588 16.6217C7.49113 17.3439 6.86637 17.8975 6.10668 18.1628C5.34699 18.4281 4.51341 18.3837 3.78618 18.0393C3.05894 17.6948 2.49649 17.078 2.22043 16.3222C1.94436 15.5663 1.97687 14.7322 2.31092 14.0002C4.08342 10.2538 6.77563 7.01719 10.1366 4.59211C13.4975 2.16702 17.4178 0.632402 21.5319 0.131312C25.6461 -0.369778 29.8201 0.178977 33.6649 1.72642C37.5097 3.27386 40.9001 5.76961 43.52 8.981C46.1399 12.1924 47.9041 16.0149 48.648 20.0921C49.392 24.1693 49.0914 28.3685 47.7745 32.2982C46.4575 36.2279 44.167 39.7602 41.1165 42.5658C38.0659 45.3714 34.3547 47.3589 30.3287 48.343C30.0914 48.4009 29.8481 48.4303 29.6039 48.4308Z" fill="white"/>
<path d="M25.5212 12.25C24.7089 12.25 23.93 12.5727 23.3556 13.147C22.7813 13.7213 22.4587 14.5003 22.4587 15.3125V24.0774C22.4589 25.1602 22.8893 26.1987 23.6551 26.9643L27.3158 30.625C27.8934 31.1828 28.667 31.4915 29.4699 31.4845C30.2729 31.4776 31.041 31.1555 31.6088 30.5877C32.1767 30.0199 32.4987 29.2517 32.5057 28.4488C32.5127 27.6458 32.204 26.8722 31.6461 26.2946L28.5837 23.2321V15.3125C28.5837 14.5003 28.261 13.7213 27.6867 13.147C27.1123 12.5727 26.3334 12.25 25.5212 12.25Z" fill="white"/>
</g>
<defs>
<clipPath id="clip0_48_1632">
<rect width="49" height="49" fill="white"/>
</clipPath>
</defs>
</svg>
