<svg width="49" height="49" viewBox="0 0 49 49" fill="none" xmlns="http://www.w3.org/2000/svg">
<g clip-path="url(#clip0_48_1660)">
<path d="M48.1042 43.7844L38.6203 34.2965C45.7166 24.8135 43.7817 11.3732 34.2986 4.27691C24.8155 -2.81936 11.3752 -0.884437 4.27895 8.59864C-2.81731 18.0817 -0.882392 31.522 8.60069 38.6183C16.2183 44.3186 26.6809 44.3186 34.2986 38.6183L43.7864 48.1061C44.9787 49.2984 46.9118 49.2984 48.1041 48.1061C49.2964 46.9138 49.2964 44.9807 48.1041 43.7885L48.1042 43.7844ZM21.5287 36.787C13.1006 36.787 6.26833 29.9548 6.26833 21.5267C6.26833 13.0985 13.1006 6.26629 21.5287 6.26629C29.9568 6.26629 36.7891 13.0985 36.7891 21.5267C36.7801 29.951 29.9531 36.7781 21.5287 36.787Z" fill="white"/>
</g>
<defs>
<clipPath id="clip0_48_1660">
<rect width="49" height="49" fill="white"/>
</clipPath>
</defs>
</svg>
