<svg width="63" height="63" viewBox="0 0 63 63" fill="none" xmlns="http://www.w3.org/2000/svg">
<g clip-path="url(#clip0_52_1679)">
<path d="M29.2949 30.6957L27.4128 28.7374C26.6892 27.9852 25.6966 27.5511 24.6531 27.5304C23.6096 27.5098 22.6006 27.9042 21.8478 28.6272C21.475 28.9855 21.1764 29.4137 20.969 29.8875C20.7617 30.3612 20.6497 30.8711 20.6395 31.3881C20.6293 31.9051 20.721 32.4191 20.9094 32.9007C21.0978 33.3822 21.3792 33.822 21.7375 34.1948L24.7799 37.3605C25.3464 37.9603 26.0268 38.441 26.7813 38.7745C27.5359 39.108 28.3493 39.2877 29.1742 39.303H29.2713C30.9065 39.2983 32.4739 38.6494 33.634 37.497L44.0317 27.0968C44.7698 26.3584 45.1845 25.3571 45.1845 24.313C45.1845 23.2689 44.7698 22.2676 44.0317 21.5292C43.666 21.1633 43.2318 20.873 42.7539 20.675C42.2761 20.4769 41.7638 20.375 41.2465 20.375C40.7293 20.375 40.217 20.4769 39.7391 20.675C39.2613 20.873 38.8271 21.1633 38.4614 21.5292L29.2949 30.6957Z" fill="#E5067E"/>
<path d="M31.5001 62.9975C30.9494 62.9976 30.4048 62.8823 29.9015 62.6588C28.8751 62.21 5.01121 51.3661 5.01121 31.4975V19.0208C5.00794 15.9897 5.96015 13.0347 7.73251 10.5757C9.50487 8.11672 12.0072 6.27895 14.8838 5.32358L30.2532 0.199581C31.0629 -0.0681546 31.9373 -0.0681546 32.747 0.199581L48.1163 5.32358C50.9928 6.2793 53.4949 8.11716 55.2672 10.576C57.0395 13.0349 57.9918 15.9898 57.989 19.0208V31.4975C57.989 54.1197 33.776 62.4515 32.747 62.7953C32.345 62.9298 31.9239 62.9981 31.5001 62.9975ZM31.5001 8.08508L17.375 12.7943C16.0679 13.2297 14.931 14.0653 14.1253 15.1829C13.3197 16.3004 12.8862 17.6432 12.8862 19.0208V31.4975C12.8862 43.9268 27.1163 52.3715 31.7022 54.7681C36.3143 52.844 50.114 45.8877 50.114 31.4975V19.0208C50.114 17.6432 49.6805 16.3004 48.8749 15.1829C48.0692 14.0653 46.9323 13.2297 45.6252 12.7943L31.5001 8.08508Z" fill="#E5067E"/>
</g>
<defs>
<clipPath id="clip0_52_1679">
<rect width="63" height="63" fill="white"/>
</clipPath>
</defs>
</svg>
