<svg width="49" height="49" viewBox="0 0 49 49" fill="none" xmlns="http://www.w3.org/2000/svg">
<g clip-path="url(#clip0_48_1640)">
<path d="M22.7849 23.8744L21.3211 22.3513C20.7583 21.7663 19.9863 21.4286 19.1747 21.4126C18.363 21.3965 17.5782 21.7033 16.9927 22.2656C16.7028 22.5443 16.4705 22.8774 16.3093 23.2458C16.148 23.6143 16.0609 24.0109 16.053 24.413C16.045 24.8151 16.1163 25.2149 16.2628 25.5894C16.4094 25.964 16.6283 26.306 16.907 26.5959L19.2733 29.0582C19.7139 29.5247 20.2431 29.8985 20.8299 30.158C21.4168 30.4174 22.0495 30.5571 22.691 30.569H22.7666C24.0384 30.5654 25.2575 30.0607 26.1598 29.1644L34.2469 21.0753C34.821 20.501 35.1435 19.7222 35.1435 18.9101C35.1435 18.098 34.821 17.3192 34.2469 16.7449C33.9625 16.4603 33.6248 16.2346 33.2531 16.0805C32.8814 15.9265 32.483 15.8472 32.0807 15.8472C31.6783 15.8472 31.2799 15.9265 30.9082 16.0805C30.5365 16.2346 30.1989 16.4603 29.9144 16.7449L22.7849 23.8744Z" fill="white"/>
<path d="M24.5001 48.9981C24.0718 48.9982 23.6482 48.9085 23.2567 48.7347C22.4584 48.3856 3.89762 39.9515 3.89762 24.4981V14.7941C3.89508 12.4365 4.63569 10.1382 6.01419 8.22563C7.39269 6.3131 9.33894 4.88372 11.5763 4.14066L23.5303 0.155325C24.16 -0.0529142 24.8401 -0.0529142 25.4699 0.155325L37.4238 4.14066C39.661 4.88399 41.6071 6.31344 42.9856 8.22591C44.364 10.1384 45.1048 12.4366 45.1025 14.7941V24.4981C45.1025 42.0932 26.2702 48.5735 25.4699 48.8409C25.1573 48.9455 24.8297 48.9986 24.5001 48.9981ZM24.5001 6.28849L13.5139 9.95124C12.4973 10.2898 11.613 10.9398 10.9864 11.809C10.3598 12.6782 10.0226 13.7226 10.0226 14.7941V24.4981C10.0226 34.1654 21.0905 40.7335 24.6573 42.5975C28.2445 41.101 38.9775 35.6905 38.9775 24.4981V14.7941C38.9776 13.7226 38.6404 12.6782 38.0138 11.809C37.3872 10.9398 36.5029 10.2898 35.4863 9.95124L24.5001 6.28849Z" fill="white"/>
</g>
<defs>
<clipPath id="clip0_48_1640">
<rect width="49" height="49" fill="white"/>
</clipPath>
</defs>
</svg>
