<svg width="49" height="49" viewBox="0 0 49 49" fill="none" xmlns="http://www.w3.org/2000/svg">
<g clip-path="url(#clip0_48_1668)">
<path d="M34.7086 20.4166C31.882 20.4166 29.1188 21.2548 26.7686 22.8252C24.4183 24.3956 22.5865 26.6276 21.5048 29.2391C20.4231 31.8506 20.1401 34.7241 20.6915 37.4964C21.243 40.2688 22.6041 42.8153 24.6028 44.814C26.6016 46.8127 29.1481 48.1739 31.9204 48.7253C34.6927 49.2768 37.5663 48.9938 40.1778 47.9121C42.7892 46.8304 45.0213 44.9986 46.5917 42.6483C48.1621 40.298 49.0003 37.5349 49.0003 34.7083C48.9959 30.9192 47.4888 27.2866 44.8095 24.6073C42.1303 21.928 38.4976 20.4209 34.7086 20.4166ZM40.2354 40.2351C39.8525 40.6178 39.3333 40.8328 38.7919 40.8328C38.2505 40.8328 37.7313 40.6178 37.3485 40.2351L33.2651 36.1517C32.8822 35.7689 32.667 35.2497 32.6669 34.7083V28.5833C32.6669 28.0418 32.882 27.5225 33.2649 27.1396C33.6478 26.7567 34.1671 26.5416 34.7086 26.5416C35.2501 26.5416 35.7694 26.7567 36.1523 27.1396C36.5351 27.5225 36.7503 28.0418 36.7503 28.5833V33.863L40.2354 37.3482C40.6181 37.731 40.8331 38.2502 40.8331 38.7916C40.8331 39.333 40.6181 39.8522 40.2354 40.2351ZM17.3013 22.4583C15.0804 22.4583 12.9094 21.7997 11.0627 20.5658C9.21611 19.3319 7.77684 17.5782 6.92693 15.5263C6.07702 13.4745 5.85465 11.2167 6.28793 9.03841C6.72121 6.86016 7.79068 4.85932 9.36111 3.28889C10.9315 1.71846 12.9324 0.648989 15.1106 0.215709C17.2889 -0.217571 19.5467 0.00480443 21.5985 0.854713C23.6504 1.70462 25.4042 3.14389 26.638 4.99052C27.8719 6.83715 28.5305 9.00819 28.5305 11.2291C28.5273 14.2063 27.3431 17.0606 25.238 19.1658C23.1328 21.2709 20.2785 22.455 17.3013 22.4583ZM23.1854 48.9999H2.04191C1.7719 49 1.50456 48.9464 1.25538 48.8424C1.0062 48.7384 0.78012 48.586 0.590237 48.394C0.400355 48.2021 0.250437 47.9743 0.149165 47.724C0.0478919 47.4737 -0.00272457 47.2058 0.000245605 46.9358C-0.00915847 42.7 1.26391 38.5606 3.65196 35.0622C6.04001 31.5638 9.43117 28.8702 13.3793 27.3358C14.9471 26.7787 16.6036 26.513 18.267 26.5518C17.9384 27.2112 17.6493 27.8895 17.4014 28.5833C16.6943 30.5479 16.3331 32.6203 16.3336 34.7083C16.3343 37.4512 16.9502 40.1591 18.136 42.6325C19.3218 45.1058 21.0473 47.2817 23.1854 48.9999Z" fill="white"/>
</g>
<defs>
<clipPath id="clip0_48_1668">
<rect width="49" height="49" fill="white"/>
</clipPath>
</defs>
</svg>
