<svg width="49" height="49" viewBox="0 0 49 49" fill="none" xmlns="http://www.w3.org/2000/svg">
<g clip-path="url(#clip0_48_1664)">
<path d="M49 18.375C49 16.7505 48.3547 15.1926 47.206 14.044C46.0574 12.8953 44.4995 12.25 42.875 12.25H36.75C36.75 9.0011 35.4594 5.88526 33.1621 3.58794C30.8647 1.29062 27.7489 0 24.5 0C21.2511 0 18.1353 1.29062 15.8379 3.58794C13.5406 5.88526 12.25 9.0011 12.25 12.25H6.125C4.50055 12.25 2.94263 12.8953 1.79397 14.044C0.645311 15.1926 0 16.7505 0 18.375L0 38.7917C0.00324188 41.4981 1.0798 44.0927 2.99353 46.0065C4.90726 47.9202 7.50191 48.9968 10.2083 49H38.7917C41.4981 48.9968 44.0927 47.9202 46.0065 46.0065C47.9202 44.0927 48.9968 41.4981 49 38.7917V18.375ZM16.3333 12.25C16.3333 10.0841 17.1937 8.00684 18.7253 6.4753C20.2568 4.94375 22.3341 4.08333 24.5 4.08333C26.6659 4.08333 28.7432 4.94375 30.2747 6.4753C31.8063 8.00684 32.6667 10.0841 32.6667 12.25H16.3333Z" fill="white"/>
</g>
<defs>
<clipPath id="clip0_48_1664">
<rect width="49" height="49" fill="white"/>
</clipPath>
</defs>
</svg>
