<svg width="63" height="63" viewBox="0 0 63 63" fill="none" xmlns="http://www.w3.org/2000/svg">
<g clip-path="url(#clip0_52_1680)">
<path d="M24.9375 63H3.93748C2.89319 63 1.89168 62.5852 1.15325 61.8467C0.414827 61.1083 -1.52588e-05 60.1068 -1.52588e-05 59.0625C-1.52588e-05 58.0182 0.414827 57.0167 1.15325 56.2783C1.89168 55.5398 2.89319 55.125 3.93748 55.125H24.9375C25.9818 55.125 26.9833 55.5398 27.7217 56.2783C28.4601 57.0167 28.875 58.0182 28.875 59.0625C28.875 60.1068 28.4601 61.1083 27.7217 61.8467C26.9833 62.5852 25.9818 63 24.9375 63Z" fill="#E5067E"/>
<path d="M19.6875 49.8733H3.93748C2.89319 49.8733 1.89168 49.4584 1.15325 48.72C0.414827 47.9816 -1.52588e-05 46.9801 -1.52588e-05 45.9358C-1.52588e-05 44.8915 0.414827 43.89 1.15325 43.1516C1.89168 42.4131 2.89319 41.9983 3.93748 41.9983H19.6875C20.7318 41.9983 21.7333 42.4131 22.4717 43.1516C23.2101 43.89 23.625 44.8915 23.625 45.9358C23.625 46.9801 23.2101 47.9816 22.4717 48.72C21.7333 49.4584 20.7318 49.8733 19.6875 49.8733Z" fill="#E5067E"/>
<path d="M14.4375 36.7517H3.93748C2.89319 36.7517 1.89168 36.3369 1.15325 35.5984C0.414827 34.86 -1.52588e-05 33.8585 -1.52588e-05 32.8142C-1.52588e-05 31.7699 0.414827 30.7684 1.15325 30.03C1.89168 29.2916 2.89319 28.8767 3.93748 28.8767H14.4375C15.4818 28.8767 16.4833 29.2916 17.2217 30.03C17.9601 30.7684 18.375 31.7699 18.375 32.8142C18.375 33.8585 17.9601 34.86 17.2217 35.5984C16.4833 36.3369 15.4818 36.7517 14.4375 36.7517Z" fill="#E5067E"/>
<path d="M38.0622 62.2682C37.0982 62.2692 36.1674 61.9165 35.4461 61.277C34.7248 60.6375 34.2631 59.7557 34.1486 58.7986C34.034 57.8414 34.2746 56.8755 34.8246 56.0839C35.3746 55.2923 36.196 54.7299 37.1329 54.5034C41.0158 53.5515 44.5945 51.6322 47.5355 48.9242C50.4765 46.2163 52.6842 42.8079 53.9528 39.0167C55.2213 35.2255 55.5095 31.1749 54.7905 27.2422C54.0714 23.3096 52.3685 19.623 49.8405 16.526C47.3125 13.4289 44.0416 11.0223 40.3326 9.53023C36.6237 8.03819 32.5974 7.50935 28.6289 7.99299C24.6605 8.47662 20.879 9.957 17.637 12.2962C14.3949 14.6353 11.7978 17.7571 10.0876 21.3707C9.63145 22.2993 8.82819 23.0111 7.85144 23.3521C6.87469 23.6932 5.80295 23.6362 4.86794 23.1933C3.93293 22.7505 3.20977 21.9574 2.85483 20.9856C2.4999 20.0138 2.54169 18.9414 2.97119 18.0002C5.25011 13.1834 8.71152 9.02206 13.0328 5.90409C17.354 2.78613 22.3943 0.813044 27.6839 0.168786C32.9735 -0.475473 38.3401 0.230069 43.2834 2.21964C48.2267 4.20921 52.5858 7.41803 55.9543 11.547C59.3228 15.6759 61.591 20.5905 62.5475 25.8326C63.504 31.0747 63.1176 36.4737 61.4244 41.5262C59.7311 46.5787 56.7862 51.1202 52.864 54.7274C48.9419 58.3346 44.1703 60.8899 38.9941 62.1553C38.689 62.2296 38.3762 62.2675 38.0622 62.2682Z" fill="#E5067E"/>
<path d="M32.8129 15.75C31.7686 15.75 30.7671 16.1648 30.0287 16.9033C29.2903 17.6417 28.8754 18.6432 28.8754 19.6875V30.9566C28.8757 32.3489 29.429 33.684 30.4137 34.6683L35.1203 39.375C35.8629 40.0922 36.8575 40.4891 37.8899 40.4801C38.9223 40.4711 39.9099 40.057 40.6399 39.327C41.37 38.597 41.7841 37.6094 41.7931 36.577C41.802 35.5446 41.4052 34.55 40.6879 33.8073L36.7504 29.8699V19.6875C36.7504 18.6432 36.3356 17.6417 35.5972 16.9033C34.8587 16.1648 33.8572 15.75 32.8129 15.75Z" fill="#E5067E"/>
</g>
<defs>
<clipPath id="clip0_52_1680">
<rect width="63" height="63" fill="white"/>
</clipPath>
</defs>
</svg>
