<svg width="49" height="49" viewBox="0 0 49 49" fill="none" xmlns="http://www.w3.org/2000/svg">
<g clip-path="url(#clip0_33_5772)">
<path d="M38.1424 10.207H34.3306C33.7359 7.8768 32.3839 5.81017 30.4869 4.33193C28.59 2.85368 26.2556 2.04761 23.8507 2.04037H10.8576C7.97894 2.04362 5.21915 3.18858 3.18366 5.22407C1.14817 7.25956 0.00321178 10.0193 -3.05176e-05 12.898L-3.05176e-05 31.9242C0.00669764 33.8003 0.60677 35.6261 1.71429 37.1403C2.82181 38.6545 4.38 39.7795 6.1658 40.3543C6.15355 40.5135 6.12497 40.6687 6.12497 40.832C6.12497 42.4565 6.77028 44.0144 7.91894 45.1631C9.0676 46.3117 10.6255 46.957 12.25 46.957C13.8744 46.957 15.4323 46.3117 16.581 45.1631C17.7297 44.0144 18.375 42.4565 18.375 40.832H30.625C30.625 42.4565 31.2703 44.0144 32.4189 45.1631C33.5676 46.3117 35.1255 46.957 36.75 46.957C38.3744 46.957 39.9323 46.3117 41.081 45.1631C42.2297 44.0144 42.875 42.4565 42.875 40.832C42.875 40.6687 42.8464 40.5156 42.8341 40.3563C44.6201 39.7812 46.1784 38.6558 47.2859 37.1412C48.3934 35.6266 48.9934 33.8005 49 31.9242V20.9707C48.9848 18.1044 47.8331 15.3612 45.7975 13.3432C43.7619 11.3252 41.0087 10.1973 38.1424 10.207ZM42.875 20.9707V22.457H34.7083V16.332H38.1424C38.7595 16.3193 39.3729 16.4298 39.9467 16.6572C40.5205 16.8847 41.0431 17.2243 41.4839 17.6564C41.9247 18.0884 42.2748 18.6041 42.5137 19.1733C42.7525 19.7424 42.8754 20.3535 42.875 20.9707ZM8.9098 34.707C8.17174 34.7065 7.46403 34.4132 6.94195 33.8915C6.41986 33.3698 6.12605 32.6623 6.12497 31.9242V12.898C6.12659 11.6433 6.62572 10.4405 7.5129 9.55331C8.40008 8.66613 9.60289 8.167 10.8576 8.16537H23.8507C25.1054 8.167 26.3082 8.66613 27.1954 9.55331C28.0826 10.4405 28.5817 11.6433 28.5833 12.898V34.707H8.9098ZM40.0922 34.707H34.7083V28.582H42.875V31.9242C42.8744 32.6621 42.5811 33.3696 42.0593 33.8914C41.5376 34.4131 40.8301 34.7065 40.0922 34.707Z" fill="white"/>
</g>
<defs>
<clipPath id="clip0_33_5772">
<rect width="49" height="49" fill="white"/>
</clipPath>
</defs>
</svg>
