<svg width="63" height="63" viewBox="0 0 63 63" fill="none" xmlns="http://www.w3.org/2000/svg">
<g clip-path="url(#clip0_52_1678)">
<path d="M49.0402 13.1233H44.1394C43.3748 10.1273 41.6365 7.47018 39.1975 5.56958C36.7586 3.66897 33.7573 2.63259 30.6652 2.62329H13.9597C10.2587 2.62746 6.71036 4.09955 4.0933 6.71661C1.47624 9.33367 0.00414959 12.882 -1.90735e-05 16.583L-1.90735e-05 41.0454C0.00863142 43.4574 0.780153 45.8049 2.20411 47.7517C3.62806 49.6986 5.63144 51.145 7.92748 51.884C7.91173 52.0888 7.87498 52.2883 7.87498 52.4983C7.87498 54.5869 8.70467 56.5899 10.1815 58.0668C11.6584 59.5436 13.6614 60.3733 15.75 60.3733C17.8386 60.3733 19.8416 59.5436 21.3184 58.0668C22.7953 56.5899 23.625 54.5869 23.625 52.4983H39.375C39.375 54.5869 40.2047 56.5899 41.6815 58.0668C43.1584 59.5436 45.1614 60.3733 47.25 60.3733C49.3386 60.3733 51.3416 59.5436 52.8184 58.0668C54.2953 56.5899 55.125 54.5869 55.125 52.4983C55.125 52.2883 55.0882 52.0914 55.0725 51.8867C57.3687 51.1472 59.3722 49.7002 60.7961 47.7529C62.2201 45.8056 62.9915 43.4578 63 41.0454V26.9623C62.9805 23.277 61.4997 19.75 58.8825 17.1554C56.2653 14.5609 52.7255 13.1107 49.0402 13.1233ZM55.125 26.9623V28.8733H44.625V20.9983H49.0402C49.8336 20.9819 50.6223 21.124 51.3601 21.4164C52.0978 21.7088 52.7697 22.1455 53.3365 22.701C53.9032 23.2565 54.3533 23.9196 54.6605 24.6513C54.9676 25.383 55.1255 26.1687 55.125 26.9623ZM11.4555 44.6233C10.5065 44.6226 9.59663 44.2455 8.92538 43.5747C8.25413 42.904 7.87637 41.9944 7.87498 41.0454V16.583C7.87706 14.9699 8.5188 13.4234 9.65946 12.2828C10.8001 11.1421 12.3466 10.5004 13.9597 10.4983H30.6652C32.2784 10.5004 33.8248 11.1421 34.9655 12.2828C36.1062 13.4234 36.7479 14.9699 36.75 16.583V44.6233H11.4555ZM51.5471 44.6233H44.625V36.7483H55.125V41.0454C55.1243 41.9941 54.7471 42.9038 54.0763 43.5746C53.4054 44.2454 52.4958 44.6226 51.5471 44.6233Z" fill="#E5067E"/>
</g>
<defs>
<clipPath id="clip0_52_1678">
<rect width="63" height="63" fill="white"/>
</clipPath>
</defs>
</svg>
