<svg width="63" height="63" viewBox="0 0 63 63" fill="none" xmlns="http://www.w3.org/2000/svg">
<g clip-path="url(#clip0_52_1684)">
<path d="M44.6253 26.25C40.9911 26.25 37.4384 27.3277 34.4167 29.3468C31.3949 31.3658 29.0398 34.2356 27.649 37.5932C26.2582 40.9508 25.8944 44.6454 26.6034 48.2098C27.3124 51.7742 29.0624 55.0483 31.6322 57.6181C34.202 60.1879 37.4761 61.9379 41.0405 62.6469C44.6049 63.3559 48.2995 62.9921 51.6571 61.6013C55.0147 60.2105 57.8845 57.8554 59.9035 54.8336C61.9226 51.8119 63.0003 48.2592 63.0003 44.625C62.9947 39.7534 61.057 35.0828 57.6122 31.6381C54.1675 28.1933 49.4969 26.2556 44.6253 26.25ZM51.7312 51.7309C51.2389 52.223 50.5713 52.4994 49.8753 52.4994C49.1792 52.4994 48.5117 52.223 48.0194 51.7309L42.7694 46.4809C42.2771 45.9887 42.0004 45.3211 42.0003 44.625V36.75C42.0003 36.0538 42.2768 35.3861 42.7691 34.8939C43.2614 34.4016 43.9291 34.125 44.6253 34.125C45.3215 34.125 45.9892 34.4016 46.4814 34.8939C46.9737 35.3861 47.2503 36.0538 47.2503 36.75V43.5383L51.7312 48.0191C52.2233 48.5114 52.4997 49.1789 52.4997 49.875C52.4997 50.5711 52.2233 51.2386 51.7312 51.7309ZM22.2445 28.875C19.3891 28.875 16.5977 28.0283 14.2235 26.4419C11.8493 24.8554 9.99876 22.6006 8.90602 19.9625C7.81328 17.3244 7.52737 14.4215 8.08444 11.6209C8.64152 8.82029 10.0166 6.24777 12.0357 4.22865C14.0548 2.20953 16.6273 0.834493 19.4279 0.277419C22.2285 -0.279655 25.1314 0.00625559 27.7695 1.099C30.4076 2.19174 32.6625 4.04223 34.2489 6.41646C35.8353 8.7907 36.682 11.582 36.682 14.4375C36.6779 18.2653 35.1554 21.9351 32.4488 24.6418C29.7421 27.3484 26.0723 28.8708 22.2445 28.875ZM29.8098 63H2.62528C2.27812 63 1.9344 62.9312 1.61402 62.7975C1.29365 62.6637 1.00298 62.4678 0.758842 62.221C0.514707 61.9742 0.321956 61.6814 0.191748 61.3595C0.0615404 61.0377 -0.00353789 60.6933 0.0002809 60.3461C-0.0118101 54.9001 1.62499 49.578 4.69534 45.08C7.76569 40.5821 12.1258 37.1189 17.2019 35.1461C19.2177 34.4299 21.3475 34.0883 23.4862 34.1381C23.0636 34.9859 22.692 35.8581 22.3732 36.75C21.4641 39.276 20.9996 41.9404 21.0003 44.625C21.0012 48.1516 21.7931 51.6332 23.3177 54.8132C24.8423 57.9933 27.0608 60.7909 29.8098 63Z" fill="#E5067E"/>
</g>
<defs>
<clipPath id="clip0_52_1684">
<rect width="63" height="63" fill="white"/>
</clipPath>
</defs>
</svg>
